<svg xmlns="http://www.w3.org/2000/svg" xmlns:xlink="http://www.w3.org/1999/xlink" width="250" zoomAndPan="magnify" viewBox="0 0 187.5 187.499992" height="250" preserveAspectRatio="xMidYMid meet" version="1.0"><defs><clipPath id="id1"><path d="M 6.996094 9.4375 L 180 9.4375 L 180 178.1875 L 6.996094 178.1875 Z M 6.996094 9.4375 " clip-rule="nonzero"/></clipPath></defs><g clip-path="url(#id1)"><path fill="#ffffff" d="M 150.597656 99.78125 L 150.597656 174.808594 C 150.597656 176.675781 149.085938 178.1875 147.222656 178.1875 L 39.660156 178.1875 C 37.835938 178.1875 36.328125 176.675781 36.328125 174.808594 L 36.328125 99.78125 L 10.328125 99.78125 C 8.503906 99.78125 6.996094 98.269531 6.996094 96.441406 C 6.996094 95.40625 7.429688 94.53125 8.105469 93.894531 L 88.597656 10.792969 C 89.910156 9.441406 92.011719 9.441406 93.320312 10.714844 L 178.894531 94.011719 C 180.207031 95.285156 180.246094 97.433594 178.933594 98.746094 C 178.300781 99.421875 177.425781 99.78125 176.554688 99.78125 Z M 76.335938 119.988281 L 110.429688 119.988281 C 112.292969 119.988281 113.800781 121.5 113.800781 123.371094 L 113.800781 123.648438 L 113.882812 171.425781 L 143.847656 171.425781 L 143.847656 96.441406 C 143.847656 94.570312 145.355469 93.058594 147.222656 93.058594 L 168.296875 93.058594 L 91.058594 17.875 L 18.265625 93.058594 L 39.660156 93.058594 C 41.527344 93.058594 43.035156 94.570312 43.035156 96.441406 L 43.035156 171.425781 L 73 171.425781 L 73 123.371094 C 73 121.5 74.507812 120.03125 76.335938 120.03125 Z M 107.09375 126.753906 L 79.707031 126.753906 L 79.667969 171.425781 L 107.214844 171.425781 Z M 107.09375 126.753906 " fill-opacity="1" fill-rule="nonzero"/></g></svg>